# Blender v2.79 (sub 0) OBJ File: ''
# www.blender.org
mtllib MainRoom.mtl
o Cylinder
v 0.000000 0.000000 -20.000000
v 0.000000 40.000000 -20.000000
v 3.901806 0.000000 -19.615705
v 3.901806 40.000000 -19.615705
v 7.653669 0.000000 -18.477591
v 7.653669 40.000000 -18.477591
v 11.111404 0.000000 -16.629393
v 11.111404 40.000000 -16.629393
v 14.142136 0.000000 -14.142136
v 14.142136 40.000000 -14.142136
v 16.629393 0.000000 -11.111403
v 16.629393 40.000000 -11.111403
v 18.477591 0.000000 -7.653668
v 18.477591 40.000000 -7.653668
v 19.615705 0.000000 -3.901807
v 19.615705 40.000000 -3.901807
v 20.000000 0.000000 -0.000002
v 20.000000 40.000000 -0.000002
v 19.615705 0.000000 3.901804
v 19.615705 40.000000 3.901804
v 18.477591 0.000000 7.653666
v 18.477591 40.000000 7.653666
v 16.629393 0.000000 11.111403
v 16.629393 40.000000 11.111403
v 14.142136 0.000000 14.142136
v 14.142136 40.000000 14.142136
v 11.111403 0.000000 16.629393
v 11.111403 40.000000 16.629393
v 7.653666 0.000000 18.477592
v 7.653666 40.000000 18.477592
v 3.901802 0.000000 19.615705
v 3.901802 40.000000 19.615705
v -0.000007 0.000000 20.000000
v -0.000007 40.000000 20.000000
v -3.901814 0.000000 19.615704
v -3.901814 40.000000 19.615704
v -7.653677 0.000000 18.477587
v -7.653677 40.000000 18.477587
v -11.111414 0.000000 16.629387
v -11.111414 40.000000 16.629387
v -14.142145 0.000000 14.142127
v -14.142145 40.000000 14.142127
v -16.629400 0.000000 11.111393
v -16.629400 40.000000 11.111393
v -18.477596 0.000000 7.653654
v -18.477596 40.000000 7.653654
v -19.615709 0.000000 3.901789
v -19.615709 40.000000 3.901789
v -20.000000 0.000000 -0.000019
v -20.000000 40.000000 -0.000019
v -19.615702 0.000000 -3.901827
v -19.615702 40.000000 -3.901827
v -18.477581 0.000000 -7.653689
v -18.477581 40.000000 -7.653689
v -16.629379 0.000000 -11.111425
v -16.629379 40.000000 -11.111425
v -14.142118 0.000000 -14.142153
v -14.142118 40.000000 -14.142153
v -11.111382 0.000000 -16.629408
v -11.111382 40.000000 -16.629408
v -7.653642 0.000000 -18.477602
v -7.653642 40.000000 -18.477602
v -3.901776 0.000000 -19.615711
v -3.901776 40.000000 -19.615711
v 0.000000 2.815884 -20.000000
v 3.901806 2.815884 -19.615705
v 7.653669 2.815884 -18.477591
v 11.111404 2.815884 -16.629393
v 14.142136 2.815884 -14.142136
v 16.629393 2.815884 -11.111403
v 18.477591 2.815884 -7.653668
v 19.615705 2.815884 -3.901807
v 20.000000 2.815884 -0.000002
v 19.615705 2.815884 3.901804
v 18.477591 2.815884 7.653666
v 16.629393 2.815884 11.111403
v 14.142136 2.815884 14.142136
v 11.111403 2.815884 16.629393
v 7.653666 2.815884 18.477592
v 3.901802 2.815884 19.615705
v -0.000007 2.815884 20.000000
v -3.901814 2.815884 19.615704
v -7.653677 2.815884 18.477587
v -11.111414 2.815884 16.629387
v -14.142145 2.815884 14.142127
v -16.629400 2.815884 11.111393
v -18.477596 2.815884 7.653654
v -19.615709 2.815884 3.901789
v -20.000000 2.815884 -0.000019
v -19.615702 2.815884 -3.901827
v -18.477581 2.815884 -7.653689
v -16.629379 2.815884 -11.111425
v -14.142118 2.815884 -14.142153
v -11.111382 2.815884 -16.629408
v -7.653642 2.815884 -18.477602
v -3.901776 2.815884 -19.615711
v 0.000000 2.891141 -15.366304
v 2.997817 2.891141 -15.071045
v 5.880430 2.891141 -14.196614
v 8.537061 2.891141 -12.776615
v 10.865619 2.891141 -10.865619
v 12.776615 2.891141 -8.537061
v 14.196614 2.891141 -5.880430
v 15.071045 2.891141 -2.997818
v 15.366304 2.891141 -0.000001
v 15.071045 2.891141 2.997815
v 14.196614 2.891141 5.880428
v 12.776615 2.891141 8.537061
v 10.865619 2.891141 10.865619
v 8.537061 2.891141 12.776615
v 5.880428 2.891141 14.196616
v 2.997814 2.891141 15.071045
v -0.000005 2.891141 15.366304
v -2.997823 2.891141 15.071044
v -5.880437 2.891141 14.196610
v -8.537067 2.891141 12.776611
v -10.865625 2.891141 10.865612
v -12.776622 2.891141 8.537053
v -14.196619 2.891141 5.880418
v -15.071049 2.891141 2.997804
v -15.366304 2.891141 -0.000015
v -15.071041 2.891141 -2.997833
v -14.196607 2.891141 -5.880446
v -12.776606 2.891141 -8.537078
v -10.865604 2.891141 -10.865632
v -8.537044 2.891141 -12.776628
v -5.880409 2.891141 -14.196623
v -2.997794 2.891141 -15.071050
v 0.000000 -0.102023 -15.366304
v 5.880430 -0.102023 -14.196614
v 8.537061 -0.102023 -12.776615
v 10.865619 -0.102023 -10.865619
v 12.776615 -0.102023 -8.537061
v 14.196614 -0.102023 -5.880430
v 15.071045 -0.102023 -2.997818
v 15.071045 -0.102023 2.997815
v 14.196614 -0.102023 5.880428
v 12.776615 -0.102023 8.537061
v 10.865619 -0.102023 10.865619
v 8.537061 -0.102023 12.776615
v 5.880428 -0.102023 14.196616
v 2.997814 -0.102023 15.071045
v -2.997823 -0.102023 15.071044
v -5.880437 -0.102023 14.196610
v -8.537067 -0.102023 12.776611
v -10.865625 -0.102023 10.865612
v -12.776622 -0.102023 8.537053
v -14.196619 -0.102023 5.880418
v -15.071049 -0.102023 2.997804
v -15.071041 -0.102023 -2.997833
v -14.196607 -0.102023 -5.880446
v -12.776606 -0.102023 -8.537078
v -10.865604 -0.102023 -10.865632
v -8.537044 -0.102023 -12.776628
v -5.880409 -0.102023 -14.196623
v -2.997794 -0.102023 -15.071050
v 0.000000 -0.026766 -10.866312
v 2.119912 -0.026766 -10.657518
v 4.158358 -0.026766 -10.039163
v 6.036999 -0.026766 -9.035008
v 7.683643 -0.026766 -7.683643
v 9.035008 -0.026766 -6.036999
v 10.039163 -0.026766 -4.158358
v 10.657518 -0.026766 -2.119913
v 10.866312 -0.026766 -0.000001
v 10.657518 -0.026766 2.119911
v 10.039163 -0.026766 4.158356
v 9.035008 -0.026766 6.036999
v 7.683643 -0.026766 7.683643
v 6.036999 -0.026766 9.035008
v 4.158356 -0.026766 10.039165
v 2.119910 -0.026766 10.657518
v -0.000004 -0.026766 10.866312
v -2.119917 -0.026766 10.657517
v -4.158362 -0.026766 10.039161
v -6.037004 -0.026766 9.035006
v -7.683648 -0.026766 7.683639
v -9.035012 -0.026766 6.036993
v -10.039166 -0.026766 4.158350
v -10.657521 -0.026766 2.119903
v -10.866312 -0.026766 -0.000010
v -10.657516 -0.026766 -2.119923
v -10.039158 -0.026766 -4.158369
v -9.035001 -0.026766 -6.037011
v -7.683633 -0.026766 -7.683652
v -6.036987 -0.026766 -9.035017
v -4.158343 -0.026766 -10.039169
v -2.119896 -0.026766 -10.657522
v 0.000000 -0.026766 -2.852033
v 0.556404 -0.026766 -2.797232
v 1.091426 -0.026766 -2.634934
v 1.584505 -0.026766 -2.371379
v 2.016692 -0.026766 -2.016692
v 2.371379 -0.026766 -1.584505
v 2.634934 -0.026766 -1.091426
v 2.797232 -0.026766 -0.556404
v 2.852033 -0.026766 -0.000000
v 2.797232 -0.026766 0.556404
v 2.634934 -0.026766 1.091425
v 2.371379 -0.026766 1.584505
v 2.016692 -0.026766 2.016692
v 1.584505 -0.026766 2.371379
v 1.091425 -0.026766 2.634935
v 0.556403 -0.026766 2.797232
v -0.000001 -0.026766 2.852033
v -0.556405 -0.026766 2.797232
v -1.091427 -0.026766 2.634934
v -1.584506 -0.026766 2.371378
v -2.016693 -0.026766 2.016690
v -2.371380 -0.026766 1.584503
v -2.634935 -0.026766 1.091424
v -2.797233 -0.026766 0.556401
v -2.852033 -0.026766 -0.000003
v -2.797231 -0.026766 -0.556407
v -2.634933 -0.026766 -1.091429
v -2.371377 -0.026766 -1.584507
v -2.016689 -0.026766 -2.016694
v -1.584501 -0.026766 -2.371381
v -1.091422 -0.026766 -2.634936
v -0.556400 -0.026766 -2.797233
v 0.000000 -0.026766 -0.994041
v 0.193928 -0.026766 -0.974941
v 0.380403 -0.026766 -0.918374
v 0.552260 -0.026766 -0.826515
v 0.702893 -0.026766 -0.702893
v 0.826515 -0.026766 -0.552260
v 0.918374 -0.026766 -0.380403
v 0.974941 -0.026766 -0.193928
v 0.994041 -0.026766 -0.000000
v 0.974941 -0.026766 0.193928
v 0.918374 -0.026766 0.380403
v 0.826515 -0.026766 0.552260
v 0.702893 -0.026766 0.702893
v 0.552260 -0.026766 0.826515
v 0.380403 -0.026766 0.918375
v 0.193928 -0.026766 0.974941
v -0.000000 -0.026766 0.994041
v -0.193928 -0.026766 0.974941
v -0.380404 -0.026766 0.918374
v -0.552260 -0.026766 0.826515
v -0.702894 -0.026766 0.702893
v -0.826516 -0.026766 0.552259
v -0.918375 -0.026766 0.380402
v -0.974941 -0.026766 0.193927
v -0.994041 -0.026766 -0.000001
v -0.974941 -0.026766 -0.193929
v -0.918374 -0.026766 -0.380404
v -0.826514 -0.026766 -0.552261
v -0.702892 -0.026766 -0.702894
v -0.552259 -0.026766 -0.826516
v -0.380402 -0.026766 -0.918375
v -0.193926 -0.026766 -0.974941
v 5.703194 -0.026766 -3.810752
v 6.337049 -0.026766 -2.624892
v -2.624895 -0.026766 6.337048
v -3.810755 -0.026766 5.703192
v -1.338148 -0.026766 -6.727377
v 0.000000 -0.026766 -6.859172
v 4.850167 -0.026766 -4.850167
v -1.338161 -0.026766 6.727375
v -2.624882 -0.026766 -6.337053
v 3.810752 -0.026766 -5.703194
v -0.000002 -0.026766 6.859172
v -3.810744 -0.026766 -5.703199
v 2.624892 -0.026766 -6.337049
v 1.338157 -0.026766 6.727375
v -4.850161 -0.026766 -4.850173
v 1.338158 -0.026766 -6.727375
v 2.624890 -0.026766 6.337049
v -5.703189 -0.026766 -3.810759
v 3.810752 -0.026766 5.703194
v -6.337046 -0.026766 -2.624898
v 4.850167 -0.026766 4.850167
v -6.727374 -0.026766 -1.338165
v 5.703194 -0.026766 3.810752
v -6.859172 -0.026766 -0.000007
v 6.337049 -0.026766 2.624890
v -6.727377 -0.026766 1.338152
v 6.727375 -0.026766 1.338157
v -6.337051 -0.026766 2.624887
v 6.859172 -0.026766 -0.000001
v -5.703196 -0.026766 3.810748
v 6.727375 -0.026766 -1.338158
v -4.850171 -0.026766 4.850164
vn -0.0980 0.0000 0.9952
vn -0.2903 0.0000 0.9569
vn -0.4714 0.0000 0.8819
vn -0.6344 0.0000 0.7730
vn -0.7730 0.0000 0.6344
vn -0.8819 0.0000 0.4714
vn -0.9569 0.0000 0.2903
vn -0.9952 0.0000 0.0980
vn -0.9952 0.0000 -0.0980
vn -0.9569 0.0000 -0.2903
vn -0.8819 0.0000 -0.4714
vn -0.7730 0.0000 -0.6344
vn -0.6344 0.0000 -0.7730
vn -0.4714 0.0000 -0.8819
vn -0.2903 0.0000 -0.9569
vn -0.0980 0.0000 -0.9952
vn 0.0980 0.0000 -0.9952
vn 0.2903 0.0000 -0.9569
vn 0.4714 0.0000 -0.8819
vn 0.6344 0.0000 -0.7730
vn 0.7730 0.0000 -0.6344
vn 0.8819 0.0000 -0.4714
vn 0.9569 0.0000 -0.2903
vn 0.9952 0.0000 -0.0980
vn 0.9952 0.0000 0.0980
vn 0.9569 0.0000 0.2903
vn 0.8819 0.0000 0.4714
vn 0.7730 0.0000 0.6344
vn 0.6344 0.0000 0.7730
vn 0.4714 0.0000 0.8819
vn 0.0000 -1.0000 0.0000
vn 0.2903 0.0000 0.9569
vn 0.0980 0.0000 0.9952
vn -0.0104 0.9999 0.0126
vn 0.0144 0.9999 -0.0077
vn -0.0077 0.9999 0.0144
vn -0.0016 0.9999 -0.0162
vn 0.0126 0.9999 -0.0104
vn -0.0047 0.9999 0.0156
vn -0.0047 0.9999 -0.0156
vn 0.0104 0.9999 -0.0126
vn -0.0016 0.9999 0.0162
vn -0.0077 0.9999 -0.0144
vn 0.0077 0.9999 -0.0144
vn 0.0016 0.9999 0.0162
vn -0.0104 0.9999 -0.0126
vn 0.0047 0.9999 -0.0156
vn 0.0047 0.9999 0.0156
vn -0.0126 0.9999 -0.0104
vn 0.0016 0.9999 -0.0162
vn 0.0077 0.9999 0.0144
vn -0.0144 0.9999 -0.0077
vn 0.0104 0.9999 0.0126
vn -0.0156 0.9999 -0.0047
vn 0.0126 0.9999 0.0104
vn -0.0162 0.9999 -0.0016
vn 0.0144 0.9999 0.0077
vn -0.0162 0.9999 0.0016
vn 0.0156 0.9999 0.0047
vn -0.0156 0.9999 0.0047
vn 0.0162 0.9999 0.0016
vn -0.0144 0.9999 0.0077
vn 0.0162 0.9999 -0.0016
vn -0.0126 0.9999 0.0104
vn 0.0156 0.9999 -0.0047
vn -0.0535 0.8378 0.5433
vn -0.0148 0.9999 0.0079
vn -0.0130 0.9999 0.0107
vn 0.0161 0.9999 -0.0049
vn -0.0107 0.9999 0.0130
vn 0.0148 0.9999 -0.0079
vn -0.0079 0.9999 0.0148
vn -0.0016 0.9999 -0.0167
vn 0.0130 0.9999 -0.0107
vn -0.0049 0.9999 0.0161
vn -0.0049 0.9999 -0.0161
vn 0.0107 0.9999 -0.0130
vn -0.0079 0.9999 -0.0148
vn 0.0079 0.9999 -0.0148
vn -0.0107 0.9999 -0.0130
vn -1.0000 0.0000 0.0000
vn 0.0049 0.9999 0.0161
vn -0.0130 0.9999 -0.0107
vn 0.9239 0.0000 0.3827
vn 0.0079 0.9999 0.0148
vn -0.0148 0.9999 -0.0079
vn 0.0107 0.9999 0.0130
vn -0.0161 0.9999 -0.0049
vn 0.0130 0.9999 0.0107
vn 0.0148 0.9999 0.0079
vn 0.0161 0.9999 0.0049
vn -0.0161 0.9999 0.0049
vn 0.0000 1.0000 0.0000
vn -0.1585 0.8378 0.5224
vn -0.1951 0.0000 -0.9808
vn -0.1951 0.0000 0.9808
vn -0.5433 0.8378 -0.0535
vn -0.5433 0.8378 0.0535
vn 0.9808 0.0000 -0.1951
vn -0.9808 0.0000 -0.1951
vn -0.0535 0.8378 -0.5433
vn 0.0535 0.8378 -0.5433
vn 0.1951 0.0000 0.9808
vn 0.5433 0.8378 -0.0535
vn 0.5433 0.8378 0.0535
vn 0.1951 0.0000 -0.9808
usemtl None
s off
f 65//1 66//1 4//1 2//1
f 66//2 67//2 6//2 4//2
f 67//3 68//3 8//3 6//3
f 68//4 69//4 10//4 8//4
f 69//5 70//5 12//5 10//5
f 70//6 71//6 14//6 12//6
f 71//7 72//7 16//7 14//7
f 72//8 73//8 18//8 16//8
f 73//9 74//9 20//9 18//9
f 74//10 75//10 22//10 20//10
f 75//11 76//11 24//11 22//11
f 76//12 77//12 26//12 24//12
f 77//13 78//13 28//13 26//13
f 78//14 79//14 30//14 28//14
f 79//15 80//15 32//15 30//15
f 80//16 81//16 34//16 32//16
f 81//17 82//17 36//17 34//17
f 82//18 83//18 38//18 36//18
f 83//19 84//19 40//19 38//19
f 84//20 85//20 42//20 40//20
f 85//21 86//21 44//21 42//21
f 86//22 87//22 46//22 44//22
f 87//23 88//23 48//23 46//23
f 88//24 89//24 50//24 48//24
f 89//25 90//25 52//25 50//25
f 90//26 91//26 54//26 52//26
f 91//27 92//27 56//27 54//27
f 92//28 93//28 58//28 56//28
f 93//29 94//29 60//29 58//29
f 94//30 95//30 62//30 60//30
f 4//31 6//31 8//31 10//31 12//31 14//31 16//31 18//31 20//31 22//31 24//31 26//31 28//31 30//31 32//31 34//31 36//31 38//31 40//31 42//31 44//31 46//31 48//31 50//31 52//31 54//31 56//31 58//31 60//31 62//31 64//31 2//31
f 95//32 96//32 64//32 62//32
f 96//33 65//33 2//33 64//33
f 63//16 96//16 65//16 1//16
f 61//15 95//15 96//15 63//15
f 59//14 94//14 95//14 61//14
f 57//13 93//13 94//13 59//13
f 55//12 92//12 93//12 57//12
f 53//11 91//11 92//11 55//11
f 51//10 90//10 91//10 53//10
f 49//9 89//9 90//9 51//9
f 47//8 88//8 89//8 49//8
f 45//7 87//7 88//7 47//7
f 43//6 86//6 87//6 45//6
f 41//5 85//5 86//5 43//5
f 39//4 84//4 85//4 41//4
f 37//3 83//3 84//3 39//3
f 35//2 82//2 83//2 37//2
f 33//1 81//1 82//1 35//1
f 31//33 80//33 81//33 33//33
f 29//32 79//32 80//32 31//32
f 27//30 78//30 79//30 29//30
f 25//29 77//29 78//29 27//29
f 23//28 76//28 77//28 25//28
f 21//27 75//27 76//27 23//27
f 19//26 74//26 75//26 21//26
f 17//25 73//25 74//25 19//25
f 15//24 72//24 73//24 17//24
f 13//23 71//23 72//23 15//23
f 11//22 70//22 71//22 13//22
f 9//21 69//21 70//21 11//21
f 7//20 68//20 69//20 9//20
f 5//19 67//19 68//19 7//19
f 3//18 66//18 67//18 5//18
f 1//17 65//17 66//17 3//17
f 84//34 116//34 117//34 85//34
f 70//35 102//35 103//35 71//35
f 83//36 115//36 116//36 84//36
f 96//37 128//37 97//37 65//37
f 69//38 101//38 102//38 70//38
f 82//39 114//39 115//39 83//39
f 95//40 127//40 128//40 96//40
f 68//41 100//41 101//41 69//41
f 81//42 113//42 114//42 82//42
f 94//43 126//43 127//43 95//43
f 67//44 99//44 100//44 68//44
f 80//45 112//45 113//45 81//45
f 93//46 125//46 126//46 94//46
f 66//47 98//47 99//47 67//47
f 79//48 111//48 112//48 80//48
f 92//49 124//49 125//49 93//49
f 65//50 97//50 98//50 66//50
f 78//51 110//51 111//51 79//51
f 91//52 123//52 124//52 92//52
f 77//53 109//53 110//53 78//53
f 90//54 122//54 123//54 91//54
f 76//55 108//55 109//55 77//55
f 89//56 121//56 122//56 90//56
f 75//57 107//57 108//57 76//57
f 88//58 120//58 121//58 89//58
f 74//59 106//59 107//59 75//59
f 87//60 119//60 120//60 88//60
f 73//61 105//61 106//61 74//61
f 86//62 118//62 119//62 87//62
f 72//63 104//63 105//63 73//63
f 85//64 117//64 118//64 86//64
f 71//65 103//65 104//65 72//65
f 108//12 138//12 139//12 109//12
f 107//11 137//11 138//11 108//11
f 106//10 136//10 137//10 107//10
f 119//23 148//23 149//23 120//23
f 118//22 147//22 148//22 119//22
f 117//21 146//21 147//21 118//21
f 103//7 134//7 135//7 104//7
f 116//20 145//20 146//20 117//20
f 102//6 133//6 134//6 103//6
f 115//19 144//19 145//19 116//19
f 128//33 156//33 129//33 97//33
f 101//5 132//5 133//5 102//5
f 114//18 143//18 144//18 115//18
f 127//32 155//32 156//32 128//32
f 100//4 131//4 132//4 101//4
f 126//30 154//30 155//30 127//30
f 99//3 130//3 131//3 100//3
f 125//29 153//29 154//29 126//29
f 111//15 141//15 142//15 112//15
f 124//28 152//28 153//28 125//28
f 158//66 98//66 97//66 157//66
f 110//14 140//14 141//14 111//14
f 123//27 151//27 152//27 124//27
f 109//13 139//13 140//13 110//13
f 122//26 150//26 151//26 123//26
f 147//67 178//67 179//67 148//67
f 146//68 177//68 178//68 147//68
f 134//69 163//69 164//69 135//69
f 145//70 176//70 177//70 146//70
f 133//71 162//71 163//71 134//71
f 144//72 175//72 176//72 145//72
f 156//73 188//73 157//73 129//73
f 132//74 161//74 162//74 133//74
f 143//75 174//75 175//75 144//75
f 155//76 187//76 188//76 156//76
f 131//77 160//77 161//77 132//77
f 154//78 186//78 187//78 155//78
f 130//79 159//79 160//79 131//79
f 153//80 185//80 186//80 154//80
f 129//81 157//81 97//81
f 141//82 171//82 172//82 142//82
f 152//83 184//83 185//83 153//83
f 130//84 99//84 159//84
f 140//85 170//85 171//85 141//85
f 151//86 183//86 184//86 152//86
f 139//87 169//87 170//87 140//87
f 150//88 182//88 183//88 151//88
f 138//89 168//89 169//89 139//89
f 137//90 167//90 168//90 138//90
f 136//91 166//91 167//91 137//91
f 148//92 179//92 180//92 149//92
f 253//93 194//93 195//93 254//93
f 255//93 207//93 208//93 256//93
f 257//93 220//93 189//93 258//93
f 259//93 193//93 194//93 253//93
f 260//93 206//93 207//93 255//93
f 261//93 219//93 220//93 257//93
f 262//93 192//93 193//93 259//93
f 263//93 205//93 206//93 260//93
f 264//93 218//93 219//93 261//93
f 265//93 191//93 192//93 262//93
f 266//93 204//93 205//93 263//93
f 267//93 217//93 218//93 264//93
f 268//93 190//93 191//93 265//93
f 269//93 203//93 204//93 266//93
f 270//93 216//93 217//93 267//93
f 258//93 189//93 190//93 268//93
f 271//93 202//93 203//93 269//93
f 272//93 215//93 216//93 270//93
f 273//93 201//93 202//93 271//93
f 274//93 214//93 215//93 272//93
f 275//93 200//93 201//93 273//93
f 276//93 213//93 214//93 274//93
f 277//93 199//93 200//93 275//93
f 278//93 212//93 213//93 276//93
f 279//93 198//93 199//93 277//93
f 280//93 211//93 212//93 278//93
f 281//93 197//93 198//93 279//93
f 282//93 210//93 211//93 280//93
f 283//93 196//93 197//93 281//93
f 284//93 209//93 210//93 282//93
f 254//93 195//93 196//93 283//93
f 256//93 208//93 209//93 284//93
f 191//93 223//93 224//93 192//93
f 204//93 236//93 237//93 205//93
f 217//93 249//93 250//93 218//93
f 190//93 222//93 223//93 191//93
f 203//93 235//93 236//93 204//93
f 216//93 248//93 249//93 217//93
f 189//93 221//93 222//93 190//93
f 202//93 234//93 235//93 203//93
f 215//93 247//93 248//93 216//93
f 201//93 233//93 234//93 202//93
f 214//93 246//93 247//93 215//93
f 200//93 232//93 233//93 201//93
f 213//93 245//93 246//93 214//93
f 199//93 231//93 232//93 200//93
f 212//93 244//93 245//93 213//93
f 198//93 230//93 231//93 199//93
f 211//93 243//93 244//93 212//93
f 197//93 229//93 230//93 198//93
f 210//93 242//93 243//93 211//93
f 196//93 228//93 229//93 197//93
f 209//93 241//93 242//93 210//93
f 195//93 227//93 228//93 196//93
f 208//93 240//93 241//93 209//93
f 194//93 226//93 227//93 195//93
f 207//93 239//93 240//93 208//93
f 220//93 252//93 221//93 189//93
f 193//93 225//93 226//93 194//93
f 206//93 238//93 239//93 207//93
f 219//93 251//93 252//93 220//93
f 192//93 224//93 225//93 193//93
f 205//93 237//93 238//93 206//93
f 218//93 250//93 251//93 219//93
f 159//94 99//94 98//94 158//94
f 135//95 164//95 104//95
f 106//96 166//96 136//96
f 105//97 165//97 166//97 106//97
f 104//98 164//98 165//98 105//98
f 142//99 172//99 112//99
f 143//100 114//100 174//100
f 173//101 113//101 112//101 172//101
f 174//102 114//102 113//102 173//102
f 149//103 180//103 120//103
f 181//104 121//104 120//104 180//104
f 182//105 122//105 121//105 181//105
f 150//106 122//106 182//106
f 176//93 256//93 284//93 177//93
f 163//93 254//93 283//93 164//93
f 177//93 284//93 282//93 178//93
f 164//93 283//93 281//93 165//93
f 178//93 282//93 280//93 179//93
f 165//93 281//93 279//93 166//93
f 179//93 280//93 278//93 180//93
f 166//93 279//93 277//93 167//93
f 180//93 278//93 276//93 181//93
f 167//93 277//93 275//93 168//93
f 181//93 276//93 274//93 182//93
f 168//93 275//93 273//93 169//93
f 182//93 274//93 272//93 183//93
f 169//93 273//93 271//93 170//93
f 183//93 272//93 270//93 184//93
f 170//93 271//93 269//93 171//93
f 157//93 258//93 268//93 158//93
f 184//93 270//93 267//93 185//93
f 171//93 269//93 266//93 172//93
f 158//93 268//93 265//93 159//93
f 185//93 267//93 264//93 186//93
f 172//93 266//93 263//93 173//93
f 159//93 265//93 262//93 160//93
f 186//93 264//93 261//93 187//93
f 173//93 263//93 260//93 174//93
f 160//93 262//93 259//93 161//93
f 187//93 261//93 257//93 188//93
f 174//93 260//93 255//93 175//93
f 161//93 259//93 253//93 162//93
f 188//93 257//93 258//93 157//93
f 175//93 255//93 256//93 176//93
f 162//93 253//93 254//93 163//93
